# xmcd
#
# Track frame offsets:
#	150
#	16590
#	35203
#	51628
#	69142
#	100011
#	118187
#	139211
#	155617
#	179979
#	203658
#	217420
#
# Disc length: 3070 seconds
#
# Revision: 1
# Processed by: cddbd v1.5.1PL0 Copyright (c) Steve Scherf et al.
# Submitted via: audiograbber 1.81.03
#
DISCID=ba0bfc0c
DTITLE=The Best of Peru - Brisa Del Los Andes
DYEAR=2004
DGENRE=
TTITLE0=Diverse - Brisa Del Los Andes
TTITLE1=Diverse - Despertar
TTITLE2=Diverse - Rumi Runa
TTITLE3=Diverse - Amanecer De La Luna
TTITLE4=Diverse - Tamia
TTITLE5=Diverse - Yamor
TTITLE6=Diverse - Pankaracha
TTITLE7=Diverse - El Quenero
TTITLE8=Diverse - El Condor Pasa
TTITLE9=Diverse - Ocarina
TTITLE10=Diverse - Por Un Dolar Mas
TTITLE11=Diverse - Apache
EXTD=
EXTT0=
EXTT1=
EXTT2=
EXTT3=
EXTT4=
EXTT5=
EXTT6=
EXTT7=
EXTT8=
EXTT9=
EXTT10=
EXTT11=
PLAYORDER=
